<svg width="163" height="174" viewBox="0 0 163 174" fill="none" xmlns="http://www.w3.org/2000/svg">
<rect x="5" y="4" width="150" height="153.312" fill="#C9BCFF"/>
<path d="M127.17 86.648C126.97 86.6507 126.77 86.6535 126.567 86.6535C126.365 86.6535 126.164 86.6507 125.964 86.648C115.356 86.4068 107.667 79.7785 109.624 72.824L114.396 55.8586L115.603 51.5659L136.984 51.9304L138.283 56.13L143.399 72.6596C145.564 79.6524 137.875 86.4068 127.17 86.648Z" fill="#3F3D56"/>
<path opacity="0.2" d="M138.283 56.13C134.638 58.214 130.502 59.2875 126.303 59.2398C122.104 59.1921 117.994 58.0249 114.396 55.8586L115.603 51.5659L136.984 51.9304L138.283 56.13Z" fill="black"/>
<path d="M137.381 73.387C138.305 69.9446 141.34 64.9788 149.854 58.9915C164.701 48.5481 155.844 40.7176 155.46 40.3895C154.655 39.7013 154.774 38.9286 155.737 38.6645C156.296 38.5527 156.873 38.5618 157.428 38.6911C157.984 38.8204 158.505 39.0669 158.957 39.4142C159.438 39.8118 170.529 49.2831 153.775 61.0659C138.697 71.6716 141.903 78.5947 141.939 78.6612C142.343 79.4016 141.696 79.994 140.491 79.9861C139.286 79.9781 137.981 79.3719 137.576 78.6323C137.491 78.4758 136.521 76.5916 137.381 73.387Z" fill="#3F3D56"/>
<path d="M116.699 89.1206C116.375 89.1206 116.054 89.0568 115.755 88.9328C115.456 88.8088 115.184 88.6271 114.955 88.398C114.725 88.1689 114.544 87.8969 114.42 87.5976C114.296 87.2983 114.232 86.9775 114.232 86.6535V75.9627C114.232 75.3084 114.492 74.6809 114.955 74.2182C115.417 73.7556 116.045 73.4956 116.699 73.4956C117.353 73.4956 117.981 73.7556 118.444 74.2182C118.906 74.6809 119.166 75.3084 119.166 75.9627V86.6535C119.166 86.9775 119.102 87.2983 118.978 87.5976C118.854 87.8969 118.673 88.1689 118.444 88.398C118.214 88.6271 117.942 88.8088 117.643 88.9328C117.344 89.0568 117.023 89.1206 116.699 89.1206Z" fill="#3F3D56"/>
<path d="M118.862 63.7402C118.727 64.0346 118.535 64.2993 118.297 64.5194C118.059 64.7395 117.78 64.9107 117.477 65.023C117.173 65.1354 116.85 65.1868 116.526 65.1743C116.202 65.1619 115.884 65.0857 115.59 64.9503L105.878 60.4819C105.284 60.2079 104.823 59.7095 104.597 59.0961C104.37 58.4827 104.397 57.8045 104.67 57.2105C104.943 56.6165 105.441 56.1553 106.054 55.9282C106.667 55.7011 107.346 55.7267 107.94 55.9994L117.652 60.4678C117.946 60.6032 118.211 60.7953 118.431 61.033C118.651 61.2707 118.822 61.5495 118.935 61.8534C119.047 62.1573 119.099 62.4803 119.086 62.804C119.074 63.1278 118.998 63.4459 118.862 63.7402Z" fill="#3F3D56"/>
<path d="M134.273 63.7402C134.408 64.0345 134.6 64.2993 134.838 64.5194C135.076 64.7395 135.354 64.9107 135.658 65.023C135.962 65.1354 136.285 65.1868 136.609 65.1743C136.933 65.1618 137.251 65.0857 137.545 64.9503L147.257 60.4819C147.852 60.2084 148.313 59.71 148.54 59.0963C148.767 58.4826 148.741 57.8039 148.467 57.2094C148.194 56.615 147.695 56.1536 147.082 55.9267C146.468 55.6997 145.789 55.7259 145.195 55.9993L135.483 60.4678C135.188 60.6032 134.924 60.7952 134.704 61.033C134.483 61.2707 134.312 61.5495 134.2 61.8534C134.088 62.1572 134.036 62.4803 134.049 62.804C134.061 63.1278 134.137 63.4459 134.273 63.7402Z" fill="#3F3D56"/>
<path d="M136.436 89.1206C136.76 89.1206 137.081 89.0568 137.38 88.9328C137.679 88.8088 137.951 88.6271 138.18 88.398C138.409 88.1689 138.591 87.8969 138.715 87.5976C138.839 87.2983 138.903 86.9775 138.903 86.6535V75.9627C138.903 75.3084 138.643 74.6809 138.18 74.2182C137.718 73.7556 137.09 73.4956 136.436 73.4956C135.781 73.4956 135.154 73.7556 134.691 74.2182C134.229 74.6809 133.969 75.3084 133.969 75.9627V86.6535C133.969 86.9775 134.032 87.2983 134.156 87.5976C134.28 87.8969 134.462 88.1689 134.691 88.398C134.92 88.6271 135.192 88.8088 135.492 88.9328C135.791 89.0568 136.112 89.1206 136.436 89.1206Z" fill="#3F3D56"/>
<path d="M146.746 19.9088C146.959 19.6403 147.113 19.3296 147.198 18.9973C147.282 18.6649 147.295 18.3184 147.236 17.9807L145.893 10.0817L144.55 2.18276C144.478 1.75627 144.294 1.35638 144.018 1.02328C143.742 0.690176 143.383 0.435606 142.978 0.285146C142.572 0.134686 142.134 0.0936423 141.708 0.16614C141.281 0.238638 140.881 0.422124 140.548 0.698154L134.379 5.81047L130.662 8.89045C128.183 8.44968 125.65 8.41147 123.159 8.77731L119.578 5.81047L113.409 0.698154C113.076 0.422125 112.676 0.238643 112.25 0.166146C111.823 0.0936482 111.385 0.134692 110.979 0.285151C110.574 0.435611 110.215 0.690182 109.939 1.02328C109.663 1.35638 109.479 1.75628 109.407 2.18277L108.064 10.0817L106.721 17.9807C106.65 18.3959 106.687 18.8225 106.829 19.2191C104.528 22.7467 103.214 26.8264 103.024 31.0339C102.834 35.2414 103.775 39.4229 105.749 43.1436C107.723 46.8642 110.657 49.9879 114.248 52.1899C117.838 54.3919 121.953 55.5917 126.164 55.6645C130.375 55.7373 134.529 54.6803 138.193 52.6037C141.857 50.527 144.898 47.5065 146.999 43.8563C149.1 40.2061 150.185 36.0595 150.141 31.848C150.096 27.6365 148.924 23.5138 146.746 19.9088Z" fill="#3F3D56"/>
<path d="M112.791 3.93507C112.644 3.93528 112.499 3.96162 112.362 4.01284C112.161 4.0862 111.982 4.21189 111.846 4.37701C111.709 4.54212 111.618 4.74069 111.584 4.95233L109.955 14.5313C109.919 14.7425 109.94 14.9594 110.014 15.1602C110.089 15.361 110.215 15.5386 110.38 15.6753C110.545 15.812 110.743 15.9028 110.954 15.9387C111.165 15.9746 111.382 15.9542 111.583 15.8797L120.692 12.5003C120.893 12.4258 121.071 12.2998 121.207 12.1349C121.344 11.97 121.435 11.7721 121.471 11.5609C121.507 11.3498 121.486 11.133 121.412 10.9322C121.337 10.7314 121.211 10.5538 121.047 10.4171L121.046 10.4168L113.565 4.21736C113.348 4.0355 113.074 3.9356 112.791 3.93507Z" fill="#E6E6E6"/>
<path d="M141.166 3.93507C140.883 3.9356 140.609 4.0355 140.392 4.21736L132.911 10.4171C132.746 10.5538 132.62 10.7314 132.545 10.9322C132.471 11.133 132.45 11.3498 132.486 11.5609C132.522 11.7721 132.613 11.97 132.75 12.1349C132.886 12.2998 133.064 12.4258 133.265 12.5003L142.375 15.8797C142.575 15.9542 142.792 15.9746 143.003 15.9387C143.215 15.9028 143.413 15.812 143.577 15.6753C143.742 15.5386 143.868 15.361 143.943 15.1602C144.017 14.9594 144.038 14.7425 144.002 14.5313L142.374 4.95233C142.339 4.74069 142.248 4.54212 142.112 4.37701C141.975 4.21189 141.796 4.0862 141.595 4.01284C141.458 3.96162 141.313 3.93528 141.166 3.93507Z" fill="#E6E6E6"/>
<path d="M126.567 38.6821C128.384 38.6821 129.857 37.2094 129.857 35.3927C129.857 33.576 128.384 32.1032 126.567 32.1032C124.751 32.1032 123.278 33.576 123.278 35.3927C123.278 37.2094 124.751 38.6821 126.567 38.6821Z" fill="#E6E6E6"/>
<path d="M126.567 34.5703C127.779 34.5703 128.76 34.2021 128.76 33.748C128.76 33.2938 127.779 32.9256 126.567 32.9256C125.356 32.9256 124.374 33.2938 124.374 33.748C124.374 34.2021 125.356 34.5703 126.567 34.5703Z" fill="#3F3D56"/>
<path d="M124.923 37.3115H127.938V41.0122C127.938 41.2102 127.899 41.4062 127.823 41.5891C127.747 41.7721 127.636 41.9383 127.496 42.0783C127.356 42.2183 127.19 42.3293 127.007 42.4051C126.824 42.4809 126.628 42.5199 126.43 42.5199C126.03 42.5199 125.647 42.361 125.364 42.0783C125.082 41.7955 124.923 41.412 124.923 41.0122V37.3115H124.923Z" fill="#FF6584"/>
<path d="M126.75 0C126.592 0.327895 126.439 0.659341 126.294 0.99756C124.593 4.9651 124.019 9.32506 124.636 13.5976C124.945 13.1498 125.269 12.6833 125.599 12.2117C124.893 8.11107 125.29 3.89632 126.75 0Z" fill="#3F3D56"/>
<path d="M129.218 3.01534C129.059 3.34323 128.906 3.67468 128.762 4.01289C127.06 7.98044 126.487 12.3404 127.103 16.613C127.412 16.1652 127.736 15.6987 128.066 15.227C127.36 11.1264 127.757 6.91165 129.218 3.01534Z" fill="#3F3D56"/>
<path d="M136.824 62.2126L136.476 57.7926L136.129 53.3727C136.11 53.1341 136.029 52.9046 135.893 52.7073C135.757 52.51 135.572 52.3519 135.356 52.2488C135.14 52.1457 134.901 52.1013 134.662 52.1201C134.424 52.1389 134.194 52.2201 133.997 52.3557L130.343 54.8666L127.675 56.7002C127.504 56.5005 127.292 56.3402 127.054 56.2303C126.815 56.1204 126.556 56.0634 126.293 56.0634C126.031 56.0634 125.771 56.1204 125.533 56.2303C125.294 56.3402 125.083 56.5005 124.912 56.7002L122.244 54.8666L118.59 52.3557C118.392 52.2201 118.163 52.1389 117.924 52.1201C117.686 52.1013 117.446 52.1457 117.23 52.2488C117.014 52.3518 116.829 52.51 116.693 52.7073C116.558 52.9046 116.477 53.1341 116.458 53.3727L116.11 57.7926L115.763 62.2125C115.744 62.4512 115.788 62.6906 115.891 62.9066C115.995 63.1227 116.153 63.3078 116.35 63.4434C116.547 63.5789 116.777 63.6602 117.015 63.679C117.254 63.6977 117.493 63.6533 117.709 63.5503L121.711 61.6413L124.999 60.0728C125.168 60.2442 125.37 60.3803 125.592 60.4732C125.814 60.5661 126.052 60.6139 126.293 60.6139C126.534 60.6139 126.773 60.5661 126.995 60.4732C127.217 60.3803 127.418 60.2442 127.588 60.0728L130.876 61.6413L134.877 63.5503C135.093 63.6533 135.332 63.6977 135.571 63.679C135.81 63.6602 136.039 63.579 136.237 63.4434C136.434 63.3078 136.592 63.1227 136.695 62.9066C136.798 62.6906 136.843 62.4512 136.824 62.2126Z" fill="#6C63FF"/>
<path d="M122.181 32.6515C122.636 32.6515 123.004 32.2833 123.004 31.8291C123.004 31.3749 122.636 31.0067 122.181 31.0067C121.727 31.0067 121.359 31.3749 121.359 31.8291C121.359 32.2833 121.727 32.6515 122.181 32.6515Z" fill="#E6E6E6"/>
<path d="M130.953 32.6515C131.408 32.6515 131.776 32.2833 131.776 31.8291C131.776 31.3749 131.408 31.0067 130.953 31.0067C130.499 31.0067 130.131 31.3749 130.131 31.8291C130.131 32.2833 130.499 32.6515 130.953 32.6515Z" fill="#E6E6E6"/>
<path d="M11 99C15.9706 99 20 94.9706 20 90C20 85.0294 15.9706 81 11 81C6.02944 81 2 85.0294 2 90C2 94.9706 6.02944 99 11 99Z" fill="#6C63FF"/>
<path d="M142 111C144.761 111 147 108.761 147 106C147 103.239 144.761 101 142 101C139.239 101 137 103.239 137 106C137 108.761 139.239 111 142 111Z" fill="#6C63FF"/>
<path d="M92 35C94.7614 35 97 32.7614 97 30C97 27.2386 94.7614 25 92 25C89.2386 25 87 27.2386 87 30C87 32.7614 89.2386 35 92 35Z" fill="#6C63FF"/>
<path d="M26.5771 69.1053C26.6882 69.1068 26.7993 69.1083 26.9119 69.1083C27.0245 69.1083 27.1356 69.1068 27.2467 69.1053C33.1364 68.9713 37.4052 65.2915 36.3186 61.4305L33.669 52.0116L32.9994 49.6283L21.1288 49.8308L20.4074 52.1623L17.5676 61.3392C16.3653 65.2214 20.6342 68.9713 26.5771 69.1053Z" fill="#3F3D56"/>
<path opacity="0.2" d="M20.4074 52.1623C22.4314 53.3192 24.7275 53.9152 27.0587 53.8887C29.3899 53.8623 31.6718 53.2143 33.669 52.0116L32.9994 49.6283L21.1288 49.8308L20.4074 52.1623Z" fill="black"/>
<path d="M19.4666 60.6267C18.1854 59.1188 15.4824 57.3482 9.78816 56.3663C-0.143061 54.6531 2.44112 48.6197 2.55576 48.3639C2.79628 47.8273 2.55304 47.4678 2.00725 47.564C1.70007 47.6408 1.41284 47.7823 1.16482 47.9792C0.916809 48.176 0.71374 48.4236 0.569227 48.7053C0.422473 49.019 -2.89283 56.4064 8.31334 58.3387C18.3989 60.0785 18.4349 64.314 18.4322 64.3561C18.4054 64.8236 18.8712 64.967 19.4738 64.6768C20.0763 64.3867 20.5871 63.7725 20.6148 63.3051C20.6204 63.2063 20.6596 62.0303 19.4666 60.6267Z" fill="#3F3D56"/>
<path d="M32.3906 70.478C32.5705 70.478 32.7486 70.4426 32.9148 70.3738C33.081 70.3049 33.232 70.2041 33.3592 70.0769C33.4864 69.9497 33.5872 69.7987 33.6561 69.6325C33.7249 69.4663 33.7603 69.2882 33.7603 69.1083V63.173C33.7599 62.8101 33.6154 62.4621 33.3586 62.2056C33.1018 61.9491 32.7536 61.805 32.3906 61.805C32.0277 61.805 31.6795 61.9491 31.4227 62.2056C31.1659 62.4621 31.0214 62.8101 31.021 63.173V69.1083C31.021 69.2882 31.0564 69.4663 31.1252 69.6325C31.194 69.7987 31.2949 69.9497 31.4221 70.0769C31.5493 70.2041 31.7003 70.3049 31.8665 70.3738C32.0327 70.4426 32.2108 70.478 32.3906 70.478Z" fill="#3F3D56"/>
<path d="M31.1897 56.3874C31.2649 56.5508 31.3715 56.6978 31.5035 56.82C31.6355 56.9422 31.7903 57.0372 31.959 57.0995C32.1277 57.1619 32.307 57.1905 32.4868 57.1835C32.6665 57.1766 32.8431 57.1344 33.0065 57.0592L38.3985 54.5784C38.5621 54.5033 38.7093 54.3968 38.8317 54.2648C38.9541 54.1328 39.0492 53.978 39.1118 53.8092C39.1743 53.6404 39.2029 53.461 39.196 53.2811C39.1891 53.1012 39.1469 52.9245 39.0716 52.761C38.9964 52.5975 38.8897 52.4504 38.7576 52.3281C38.6255 52.2059 38.4706 52.1109 38.3017 52.0486C38.1329 51.9862 37.9534 51.9578 37.7735 51.9648C37.5937 51.9719 37.417 52.0144 37.2535 52.0898L31.8615 54.5706C31.6981 54.6457 31.5511 54.7524 31.4289 54.8844C31.3067 55.0163 31.2117 55.1711 31.1493 55.3398C31.087 55.5085 31.0584 55.6879 31.0653 55.8676C31.0723 56.0473 31.1145 56.224 31.1897 56.3874Z" fill="#3F3D56"/>
<path d="M22.6341 56.3874C22.5589 56.5508 22.4523 56.6978 22.3203 56.82C22.1883 56.9422 22.0335 57.0372 21.8648 57.0995C21.6961 57.1619 21.5168 57.1905 21.3371 57.1835C21.1573 57.1766 20.9807 57.1344 20.8173 57.0592L15.4253 54.5784C15.2617 54.5033 15.1145 54.3968 14.9921 54.2648C14.8698 54.1328 14.7746 53.978 14.7121 53.8092C14.6496 53.6404 14.6209 53.461 14.6278 53.2811C14.6347 53.1012 14.6769 52.9245 14.7522 52.761C14.8274 52.5975 14.9341 52.4504 15.0662 52.3281C15.1984 52.2059 15.3533 52.1109 15.5221 52.0486C15.691 51.9862 15.8705 51.9578 16.0503 51.9648C16.2302 51.9719 16.4069 52.0144 16.5703 52.0898L21.9623 54.5706C22.1257 54.6457 22.2727 54.7524 22.3949 54.8844C22.5171 55.0163 22.6121 55.1711 22.6745 55.3398C22.7369 55.5085 22.7654 55.6879 22.7585 55.8676C22.7515 56.0473 22.7093 56.224 22.6341 56.3874Z" fill="#3F3D56"/>
<path d="M21.4332 70.478C21.2533 70.478 21.0752 70.4426 20.909 70.3738C20.7428 70.3049 20.5918 70.2041 20.4646 70.0769C20.3374 69.9497 20.2366 69.7987 20.1677 69.6325C20.0989 69.4663 20.0635 69.2882 20.0635 69.1083V63.173C20.0639 62.8101 20.2084 62.4621 20.4652 62.2056C20.722 61.9491 21.0702 61.805 21.4332 61.805C21.7961 61.805 22.1443 61.9491 22.4011 62.2056C22.6579 62.4621 22.8024 62.8101 22.8028 63.173V69.1083C22.8028 69.2882 22.7674 69.4663 22.6986 69.6325C22.6298 69.7987 22.5289 69.9497 22.4017 70.0769C22.2745 70.2041 22.1235 70.3049 21.9573 70.3738C21.7911 70.4426 21.613 70.478 21.4332 70.478Z" fill="#3F3D56"/>
<path d="M37.8703 31.6701C37.9492 31.4499 37.9698 31.213 37.93 30.9826L37.1845 26.5972L36.4391 22.2118C36.3988 21.9751 36.297 21.753 36.1437 21.5681C35.9905 21.3832 35.7912 21.2418 35.5661 21.1583C35.3409 21.0748 35.0977 21.052 34.8609 21.0922C34.6241 21.1325 34.4021 21.2344 34.2172 21.3876L30.7921 24.2259L28.8043 25.873C27.4214 25.6699 26.0148 25.6911 24.6387 25.9358L22.5751 24.2259L19.15 21.3876C18.9651 21.2344 18.7431 21.1325 18.5063 21.0922C18.2695 21.052 18.0263 21.0748 17.8012 21.1583C17.576 21.2418 17.3767 21.3832 17.2235 21.5681C17.0703 21.753 16.9684 21.9751 16.9281 22.2118L16.1827 26.5972L15.4372 30.9826C15.4043 31.1701 15.4115 31.3624 15.4584 31.5469C15.5053 31.7314 15.5907 31.9039 15.7091 32.053C14.4984 34.0549 13.8464 36.3446 13.8209 38.684C13.7953 41.0233 14.3972 43.3268 15.5639 45.3546C16.7306 47.3824 18.4194 49.0605 20.4546 50.2143C22.4898 51.368 24.797 51.9552 27.1362 51.9148C29.4753 51.8744 31.7609 51.2078 33.755 49.9845C35.7492 48.7611 37.379 47.0257 38.4749 44.9587C39.5708 42.8918 40.0928 40.569 39.9865 38.2319C39.8801 35.8948 39.1494 33.629 37.8703 31.6701H37.8703Z" fill="#3F3D56"/>
<path d="M34.1305 23.3414L29.977 26.7832L29.977 26.7833C29.8854 26.8592 29.8155 26.9578 29.7741 27.0693C29.7328 27.1808 29.7215 27.3012 29.7414 27.4184C29.7614 27.5356 29.8118 27.6455 29.8876 27.737C29.9635 27.8286 30.0621 27.8985 30.1736 27.9399L35.2311 29.8161C35.3426 29.8574 35.463 29.8687 35.5803 29.8488C35.6975 29.8289 35.8074 29.7784 35.899 29.7026C35.9905 29.6267 36.0605 29.5281 36.1019 29.4166C36.1432 29.3051 36.1545 29.1847 36.1346 29.0675L35.2306 23.7494C35.2114 23.6319 35.1611 23.5217 35.0852 23.43C35.0092 23.3383 34.9102 23.2685 34.7983 23.2278C34.7222 23.1994 34.6416 23.1848 34.5604 23.1846C34.4032 23.1849 34.2511 23.2404 34.1305 23.3414Z" fill="#E6E6E6"/>
<path d="M18.5689 23.2278C18.4571 23.2685 18.358 23.3383 18.2821 23.43C18.2061 23.5217 18.1559 23.6319 18.1366 23.7494L17.2326 29.0675C17.2127 29.1847 17.224 29.3051 17.2654 29.4166C17.3067 29.5281 17.3767 29.6267 17.4683 29.7026C17.5598 29.7784 17.6697 29.8289 17.787 29.8488C17.9042 29.8687 18.0246 29.8574 18.1361 29.8161L23.1936 27.9399C23.3051 27.8985 23.4037 27.8286 23.4796 27.737C23.5554 27.6455 23.6059 27.5356 23.6258 27.4184C23.6457 27.3012 23.6345 27.1808 23.5931 27.0693C23.5518 26.9578 23.4818 26.8592 23.3903 26.7833L19.2367 23.3414C19.1162 23.2404 18.964 23.1849 18.8068 23.1846C18.7256 23.1848 18.645 23.1994 18.5689 23.2278Z" fill="#E6E6E6"/>
<path d="M26.9119 42.4756C27.9205 42.4756 28.7382 41.6579 28.7382 40.6493C28.7382 39.6407 27.9205 38.8231 26.9119 38.8231C25.9033 38.8231 25.0857 39.6407 25.0857 40.6493C25.0857 41.6579 25.9033 42.4756 26.9119 42.4756Z" fill="#E6E6E6"/>
<path d="M26.9119 40.1928C27.5843 40.1928 28.1294 39.9884 28.1294 39.7362C28.1294 39.4841 27.5843 39.2797 26.9119 39.2797C26.2395 39.2797 25.6944 39.4841 25.6944 39.7362C25.6944 39.9884 26.2395 40.1928 26.9119 40.1928Z" fill="#3F3D56"/>
<path d="M26.988 44.6062C26.8781 44.6062 26.7692 44.5846 26.6677 44.5425C26.5661 44.5005 26.4738 44.4388 26.3961 44.3611C26.3184 44.2834 26.2567 44.1911 26.2147 44.0895C26.1726 43.988 26.151 43.8791 26.151 43.7692V41.7147H27.825V43.7692C27.825 43.8791 27.8034 43.988 27.7613 44.0895C27.7192 44.1911 27.6576 44.2834 27.5799 44.3611C27.5021 44.4388 27.4099 44.5005 27.3083 44.5425C27.2067 44.5846 27.0979 44.6062 26.988 44.6062Z" fill="#FF6584"/>
<path d="M26.8103 21C26.8981 21.182 26.9833 21.3661 27.0634 21.5538C28.0079 23.7565 28.3264 26.1771 27.9839 28.5492C27.8126 28.3005 27.6325 28.0415 27.4494 27.7797C27.8416 25.5031 27.6211 23.1632 26.8103 21Z" fill="#3F3D56"/>
<path d="M25.4406 22.674C25.5284 22.8561 25.6136 23.0401 25.6938 23.2279C26.6383 25.4306 26.9568 27.8511 26.6143 30.2232C26.4429 29.9746 26.2629 29.7156 26.0797 29.4537C26.472 27.1771 26.2514 24.8372 25.4406 22.674Z" fill="#3F3D56"/>
<path d="M21.2178 28.9064L21.4107 26.4526L21.6037 23.9987C21.6141 23.8662 21.6592 23.7388 21.7345 23.6293C21.8097 23.5198 21.9125 23.432 22.0324 23.3747C22.1524 23.3175 22.2853 23.2929 22.4178 23.3033C22.5503 23.3137 22.6777 23.3588 22.7872 23.4341L24.8159 24.8281L26.2972 25.8461C26.3919 25.7352 26.5095 25.6462 26.6419 25.5852C26.7743 25.5242 26.9183 25.4926 27.0641 25.4926C27.2099 25.4926 27.3539 25.5242 27.4863 25.5852C27.6187 25.6462 27.7363 25.7352 27.8309 25.8461L29.3123 24.8281L31.3409 23.4341C31.4505 23.3588 31.5779 23.3137 31.7104 23.3033C31.8429 23.2929 31.9758 23.3175 32.0957 23.3747C32.2157 23.432 32.3185 23.5198 32.3937 23.6293C32.469 23.7388 32.5141 23.8662 32.5245 23.9987L32.7175 26.4526L32.9104 28.9064C32.9208 29.0389 32.8962 29.1718 32.839 29.2918C32.7818 29.4117 32.694 29.5145 32.5844 29.5898C32.4749 29.665 32.3475 29.7101 32.215 29.7206C32.0825 29.731 31.9496 29.7063 31.8296 29.6491L29.6081 28.5893L27.7827 27.7185C27.6888 27.8136 27.5769 27.8892 27.4535 27.9408C27.3302 27.9924 27.1978 28.0189 27.0641 28.0189C26.9304 28.0189 26.798 27.9924 26.6746 27.9408C26.5513 27.8892 26.4394 27.8136 26.3455 27.7185L24.5201 28.5893L22.2985 29.6491C22.1786 29.7064 22.0457 29.731 21.9132 29.7206C21.7807 29.7102 21.6533 29.665 21.5437 29.5898C21.4342 29.5145 21.3464 29.4117 21.2892 29.2918C21.232 29.1718 21.2073 29.0389 21.2178 28.9064Z" fill="#6C63FF"/>
<path d="M28.8903 38.6709C28.8903 38.923 29.0947 38.6709 29.3469 38.6709C29.599 38.6709 29.8034 38.923 29.8034 38.6709C29.8032 38.55 29.755 38.4341 29.6694 38.3487C29.5838 38.2632 29.4678 38.2153 29.3469 38.2153C29.226 38.2153 29.11 38.2632 29.0244 38.3487C28.9388 38.4341 28.8906 38.55 28.8903 38.6709Z" fill="#E6E6E6"/>
<path d="M24.9335 38.6709C24.9335 38.923 24.7291 38.6709 24.4769 38.6709C24.2248 38.6709 24.0204 38.923 24.0204 38.6709C24.0206 38.55 24.0688 38.4341 24.1544 38.3487C24.24 38.2632 24.356 38.2153 24.4769 38.2153C24.5978 38.2153 24.7138 38.2632 24.7994 38.3487C24.885 38.4341 24.9332 38.55 24.9335 38.6709Z" fill="#E6E6E6"/>
<path d="M88.5099 126.184C88.7043 126.187 88.8987 126.19 89.0958 126.19C89.2929 126.19 89.4873 126.187 89.6817 126.184C99.9886 125.95 107.459 119.51 105.558 112.753L100.921 96.2703L99.7489 92.0996L78.9754 92.4538L77.713 96.534L72.7433 112.594C70.6393 119.388 78.1098 125.95 88.5099 126.184Z" fill="#3F3D56"/>
<path opacity="0.2" d="M77.713 96.534C81.255 98.5587 85.2731 99.6017 89.3527 99.5553C93.4323 99.509 97.4256 98.375 100.921 96.2703L99.7489 92.0996L78.9753 92.4538L77.713 96.534Z" fill="black"/>
<path d="M76.0666 111.347C73.8244 108.708 69.0942 105.609 59.1293 103.891C41.7496 100.893 46.272 90.3345 46.4726 89.8868C46.8935 88.9478 46.4678 88.3187 45.5127 88.487C44.9751 88.6214 44.4725 88.8691 44.0384 89.2135C43.6044 89.558 43.249 89.9913 42.9961 90.4843C42.7393 91.0333 36.9376 103.961 56.5483 107.343C74.1981 110.387 74.261 117.8 74.2564 117.873C74.2094 118.691 75.0246 118.942 76.0791 118.434C77.1336 117.927 78.0274 116.852 78.0759 116.034C78.0857 115.861 78.1544 113.803 76.0666 111.347Z" fill="#3F3D56"/>
<path d="M98.6836 128.587C98.9984 128.587 99.3101 128.525 99.6009 128.404C99.8917 128.284 100.156 128.107 100.379 127.885C100.601 127.662 100.778 127.398 100.898 127.107C101.019 126.816 101.081 126.504 101.081 126.19V115.803C101.08 115.168 100.827 114.559 100.378 114.11C99.9281 113.661 99.3188 113.409 98.6836 113.409C98.0484 113.409 97.4392 113.661 96.9897 114.11C96.5403 114.559 96.2874 115.168 96.2867 115.803V126.19C96.2867 126.504 96.3487 126.816 96.4691 127.107C96.5896 127.398 96.7661 127.662 96.9887 127.885C97.2113 128.107 97.4755 128.284 97.7663 128.404C98.0572 128.525 98.3689 128.587 98.6836 128.587Z" fill="#3F3D56"/>
<path d="M96.582 103.928C96.7136 104.214 96.9002 104.471 97.1312 104.685C97.3621 104.899 97.633 105.065 97.9282 105.174C98.2235 105.283 98.5373 105.333 98.8518 105.321C99.1664 105.309 99.4754 105.235 99.7614 105.104L109.197 100.762C109.484 100.631 109.741 100.444 109.955 100.213C110.17 99.9824 110.336 99.7115 110.446 99.4161C110.555 99.1207 110.605 98.8067 110.593 98.4919C110.581 98.1772 110.507 97.8679 110.375 97.5817C110.244 97.2956 110.057 97.0382 109.826 96.8243C109.595 96.6103 109.323 96.4441 109.028 96.335C108.732 96.2259 108.418 96.1761 108.104 96.1885C107.789 96.2009 107.48 96.2752 107.194 96.4071L97.7577 100.748C97.4717 100.88 97.2145 101.067 97.0006 101.298C96.7868 101.529 96.6205 101.799 96.5114 102.095C96.4022 102.39 96.3522 102.704 96.3644 103.018C96.3765 103.333 96.4504 103.642 96.582 103.928Z" fill="#3F3D56"/>
<path d="M81.6097 103.928C81.4781 104.214 81.2915 104.471 81.0605 104.685C80.8295 104.899 80.5587 105.065 80.2635 105.174C79.9682 105.283 79.6544 105.333 79.3398 105.321C79.0253 105.309 78.7162 105.235 78.4303 105.104L68.9943 100.762C68.708 100.631 68.4504 100.444 68.2362 100.213C68.0221 99.9824 67.8555 99.7115 67.7461 99.4161C67.6367 99.1207 67.5866 98.8067 67.5986 98.4919C67.6107 98.1772 67.6847 97.8679 67.8163 97.5817C67.948 97.2956 68.1347 97.0382 68.3659 96.8243C68.5971 96.6103 68.8682 96.4441 69.1637 96.335C69.4592 96.2259 69.7733 96.1761 70.088 96.1885C70.4028 96.2009 70.712 96.2752 70.998 96.4071L80.434 100.748C80.72 100.88 80.9772 101.067 81.1911 101.298C81.4049 101.529 81.5712 101.799 81.6803 102.095C81.7895 102.39 81.8394 102.704 81.8273 103.018C81.8152 103.333 81.7412 103.642 81.6097 103.928Z" fill="#3F3D56"/>
<path d="M79.508 128.587C79.1933 128.587 78.8816 128.525 78.5908 128.404C78.2999 128.284 78.0357 128.107 77.8131 127.885C77.5905 127.662 77.414 127.398 77.2935 127.107C77.1731 126.816 77.1111 126.504 77.1111 126.19V115.803C77.1118 115.168 77.3647 114.559 77.8141 114.11C78.2636 113.661 78.8728 113.409 79.508 113.409C80.1432 113.409 80.7525 113.661 81.2019 114.11C81.6513 114.559 81.9042 115.168 81.905 115.803V126.19C81.905 126.504 81.843 126.816 81.7225 127.107C81.6021 127.398 81.4255 127.662 81.2029 127.885C80.9804 128.107 80.7161 128.284 80.4253 128.404C80.1345 128.525 79.8228 128.587 79.508 128.587Z" fill="#3F3D56"/>
<path d="M108.273 60.6726C108.411 60.2873 108.447 59.8728 108.377 59.4695L107.073 51.7951L105.768 44.1207C105.698 43.7063 105.52 43.3178 105.251 42.9942C104.983 42.6706 104.635 42.4232 104.241 42.277C103.847 42.1309 103.421 42.091 103.007 42.1614C102.592 42.2319 102.204 42.4101 101.88 42.6783L95.8861 47.6453L92.4076 50.5277C89.9875 50.1723 87.5259 50.2094 85.1177 50.6377L81.5065 47.6453L75.5126 42.6783C75.189 42.4101 74.8004 42.2318 74.3861 42.1614C73.9717 42.091 73.5461 42.1308 73.152 42.277C72.758 42.4232 72.4093 42.6705 72.1411 42.9942C71.8729 43.3178 71.6947 43.7063 71.6242 44.1207L70.3197 51.7951L69.0152 59.4695C68.9576 59.7976 68.9702 60.1342 69.0522 60.4571C69.1342 60.78 69.2837 61.0818 69.4909 61.3427C67.3723 64.846 66.2312 68.8531 66.1865 72.947C66.1419 77.0408 67.1952 81.0719 69.2368 84.6206C71.2785 88.1693 74.2339 91.1059 77.7956 93.125C81.3572 95.144 85.3948 96.1717 89.4883 96.1009C93.5818 96.0302 97.5816 94.8637 101.071 92.7228C104.561 90.5819 107.413 87.5449 109.331 83.9278C111.249 80.3107 112.162 76.2457 111.976 72.1558C111.79 68.0659 110.511 64.1007 108.273 60.6726H108.273Z" fill="#3F3D56"/>
<path d="M101.728 46.0974L94.4598 52.1206L94.4597 52.1208C94.2995 52.2536 94.1771 52.4262 94.1047 52.6213C94.0324 52.8163 94.0126 53.027 94.0475 53.2321C94.0824 53.4373 94.1706 53.6296 94.3034 53.7898C94.4361 53.95 94.6087 54.0724 94.8038 54.1448L103.655 57.4281C103.85 57.5005 104.06 57.5203 104.265 57.4854C104.471 57.4505 104.663 57.3623 104.823 57.2295C104.983 57.0967 105.106 56.9241 105.178 56.729C105.251 56.5339 105.27 56.3232 105.236 56.1181L103.654 46.8114C103.62 46.6058 103.532 46.4129 103.399 46.2525C103.266 46.0921 103.093 45.9699 102.897 45.8987C102.764 45.8489 102.623 45.8233 102.481 45.8231C102.206 45.8236 101.939 45.9207 101.728 46.0974Z" fill="#E6E6E6"/>
<path d="M74.4957 45.8987C74.2999 45.9699 74.1266 46.0921 73.9936 46.2525C73.8606 46.4129 73.7728 46.6058 73.7391 46.8114L72.1571 56.1181C72.1222 56.3232 72.142 56.5339 72.2144 56.729C72.2868 56.9241 72.4092 57.0967 72.5695 57.2295C72.7297 57.3623 72.922 57.4505 73.1272 57.4854C73.3323 57.5203 73.5431 57.5005 73.7382 57.4281L82.5889 54.1448C82.7839 54.0724 82.9565 53.95 83.0893 53.7898C83.222 53.6296 83.3103 53.4373 83.3452 53.2321C83.38 53.027 83.3603 52.8163 83.288 52.6213C83.2156 52.4262 83.0932 52.2536 82.933 52.1208L75.6642 46.0974C75.4533 45.9207 75.1871 45.8236 74.9119 45.8231C74.7698 45.8233 74.6288 45.8489 74.4957 45.8987Z" fill="#E6E6E6"/>
<path d="M89.0958 79.5822C90.8609 79.5822 92.2918 78.1514 92.2918 76.3863C92.2918 74.6212 90.8609 73.1904 89.0958 73.1904C87.3308 73.1904 85.8999 74.6212 85.8999 76.3863C85.8999 78.1514 87.3308 79.5822 89.0958 79.5822Z" fill="#E6E6E6"/>
<path d="M89.0958 75.5874C90.2725 75.5874 91.2265 75.2297 91.2265 74.7884C91.2265 74.3471 90.2725 73.9894 89.0958 73.9894C87.9191 73.9894 86.9652 74.3471 86.9652 74.7884C86.9652 75.2297 87.9191 75.5874 89.0958 75.5874Z" fill="#3F3D56"/>
<path d="M89.229 83.3109C89.0366 83.3109 88.8462 83.273 88.6684 83.1994C88.4907 83.1258 88.3292 83.0179 88.1932 82.8819C88.0572 82.7459 87.9493 82.5844 87.8757 82.4067C87.8021 82.229 87.7642 82.0385 87.7642 81.8461V78.2507H90.6938V81.8461C90.6938 82.0385 90.6559 82.229 90.5823 82.4067C90.5087 82.5844 90.4008 82.7459 90.2648 82.8819C90.1287 83.0179 89.9673 83.1258 89.7895 83.1994C89.6118 83.273 89.4213 83.3109 89.229 83.3109Z" fill="#FF6584"/>
<path d="M88.918 42C89.0716 42.3186 89.2207 42.6406 89.361 42.9692C91.0139 46.8239 91.5713 51.0599 90.9719 55.211C90.672 54.776 90.3569 54.3227 90.0364 53.8644C90.7229 49.8804 90.3368 45.7855 88.918 42Z" fill="#3F3D56"/>
<path d="M86.5211 44.9296C86.6747 45.2481 86.8238 45.5702 86.9641 45.8988C88.617 49.7535 89.1744 53.9895 88.575 58.1406C88.2751 57.7055 87.96 57.2523 87.6395 56.794C88.3259 52.81 87.9399 48.7151 86.5211 44.9296Z" fill="#3F3D56"/>
<path d="M79.1311 55.8363L79.4687 51.542L79.8064 47.2478C79.8246 47.0159 79.9036 46.7929 80.0353 46.6013C80.167 46.4096 80.3469 46.2559 80.5568 46.1558C80.7667 46.0557 80.9993 46.0125 81.2311 46.0308C81.463 46.049 81.686 46.1279 81.8777 46.2597L85.4278 48.6992L88.0201 50.4807C88.1858 50.2867 88.3916 50.1309 88.6233 50.0241C88.8549 49.9173 89.107 49.862 89.3621 49.862C89.6173 49.862 89.8693 49.9173 90.101 50.0241C90.3327 50.1309 90.5385 50.2867 90.7042 50.4807L93.2965 48.6992L96.8466 46.2597C97.0383 46.1279 97.2613 46.049 97.4932 46.0308C97.725 46.0125 97.9576 46.0557 98.1675 46.1558C98.3774 46.2559 98.5573 46.4096 98.689 46.6013C98.8207 46.7929 98.8997 47.0159 98.9179 47.2478L99.2556 51.542L99.5932 55.8363C99.6115 56.0681 99.5683 56.3007 99.4682 56.5106C99.3681 56.7205 99.2144 56.9004 99.0227 57.0321C98.8311 57.1638 98.6081 57.2428 98.3762 57.261C98.1444 57.2792 97.9118 57.2361 97.7019 57.136L93.8141 55.2813L90.6197 53.7573C90.4553 53.9239 90.2595 54.0561 90.0437 54.1464C89.8278 54.2366 89.5961 54.2831 89.3621 54.2831C89.1281 54.2831 88.8965 54.2366 88.6806 54.1464C88.4647 54.0561 88.2689 53.9239 88.1046 53.7573L84.9102 55.2813L81.0224 57.136C80.8125 57.2361 80.5799 57.2792 80.3481 57.261C80.1162 57.2428 79.8932 57.1638 79.7015 57.0321C79.5099 56.9004 79.3562 56.7205 79.2561 56.5106C79.1559 56.3007 79.1128 56.0681 79.1311 55.8363Z" fill="#6C63FF"/>
<path d="M92.558 72.924C92.558 73.3653 92.9158 72.924 93.357 72.924C93.7983 72.924 94.156 73.3653 94.156 72.924C94.1556 72.7124 94.0712 72.5096 93.9214 72.3601C93.7716 72.2107 93.5686 72.1267 93.357 72.1267C93.1454 72.1267 92.9424 72.2107 92.7926 72.3601C92.6429 72.5096 92.5585 72.7124 92.558 72.924Z" fill="#E6E6E6"/>
<path d="M85.6336 72.924C85.6336 73.3653 85.2759 72.924 84.8346 72.924C84.3933 72.924 84.0356 73.3653 84.0356 72.924C84.0361 72.7124 84.1204 72.5096 84.2702 72.3601C84.42 72.2107 84.623 72.1267 84.8346 72.1267C85.0462 72.1267 85.2492 72.2107 85.399 72.3601C85.5488 72.5096 85.6331 72.7124 85.6336 72.924Z" fill="#E6E6E6"/>
<path d="M22.8057 135.487C22.8057 131.427 20.9189 129.396 17.1455 129.396C16.5439 129.396 16.0107 129.438 15.5459 129.52V127.858H17.3301C22.6895 127.858 26.1621 129.253 27.748 132.042C28.3086 133.013 28.5889 134.113 28.5889 135.344C28.5889 136.561 28.3633 137.641 27.9121 138.584C27.4746 139.527 26.8115 140.348 25.9229 141.045C24.0088 142.549 21.3428 143.301 17.9248 143.301H15.5459V141.763C18.0342 141.763 19.8457 141.318 20.9805 140.43C22.1973 139.445 22.8057 137.798 22.8057 135.487ZM13.8438 152.119C13.8438 153.062 13.8779 153.705 13.9463 154.047C14.0283 154.375 14.1855 154.628 14.418 154.806C14.6504 154.97 14.9307 155.1 15.2588 155.195C15.5869 155.277 15.9424 155.359 16.3252 155.441C16.708 155.51 17.0771 155.626 17.4326 155.79V157H5.8457V155.79C6.07812 155.626 6.33789 155.51 6.625 155.441C6.92578 155.373 7.21289 155.291 7.48633 155.195C8.14258 154.99 8.51172 154.607 8.59375 154.047C8.67578 153.473 8.7168 152.816 8.7168 152.078V132.76C8.7168 131.242 8.53906 130.34 8.18359 130.053C7.89648 129.82 7.49316 129.643 6.97363 129.52C6.46777 129.383 6.0918 129.232 5.8457 129.068V127.858H13.8438V152.119ZM37.3662 127.735V153.76C37.3662 154.402 37.6465 154.867 38.207 155.154C38.4531 155.291 38.7266 155.414 39.0273 155.523C39.3418 155.619 39.6494 155.749 39.9502 155.913V157H30.3936V155.913C30.6807 155.749 30.9746 155.619 31.2754 155.523C31.5898 155.414 31.8701 155.291 32.1162 155.154C32.6904 154.854 32.9775 154.389 32.9775 153.76V131.16C32.9775 130.518 32.6836 130.039 32.0957 129.725C31.8359 129.588 31.5488 129.472 31.2344 129.376C30.9199 129.28 30.6191 129.15 30.332 128.986V127.735H37.3662ZM51.9678 155.359C53.0889 155.359 54.1006 154.922 55.0029 154.047V156.405C53.7725 157.171 52.2549 157.554 50.4502 157.554C47.4697 157.554 45.6172 156.508 44.8926 154.416C44.6465 153.691 44.5234 152.816 44.5234 151.791V140.163C44.5234 139.452 44.2568 138.953 43.7236 138.666C43.4912 138.543 43.2314 138.447 42.9443 138.379C42.6572 138.297 42.3838 138.174 42.124 138.01V136.759H48.9121V152.16C48.9121 154.293 49.9307 155.359 51.9678 155.359ZM56.7051 140.163C56.7051 139.438 56.4316 138.939 55.8848 138.666C55.6387 138.543 55.3652 138.447 55.0645 138.379C54.7637 138.297 54.4629 138.174 54.1621 138.01V136.759H61.0732V153.637C61.0732 154.348 61.3535 154.84 61.9141 155.113C62.1602 155.236 62.4268 155.339 62.7139 155.421C63.001 155.503 63.2744 155.626 63.5342 155.79V157H56.9922L56.7051 154.826V140.163ZM73.1113 141.619V152.96C73.1113 154.19 73.4121 154.922 74.0137 155.154C74.2051 155.236 74.4102 155.305 74.6289 155.359C75.3535 155.564 75.8662 155.749 76.167 155.913V157H66.2822V155.913C66.542 155.749 66.8154 155.619 67.1025 155.523C67.3896 155.414 67.6562 155.291 67.9023 155.154C68.4629 154.867 68.7432 154.402 68.7432 153.76V141.886C68.7432 140.313 68.6133 139.404 68.3535 139.158C68.1074 138.912 67.8613 138.734 67.6152 138.625C67.3828 138.516 67.1367 138.427 66.877 138.358C66.6172 138.276 66.3916 138.16 66.2002 138.01V136.759H72.8652L73.1113 141.619ZM79.3867 142.275C78.7852 142.275 78.3135 142.132 77.9717 141.845C77.6299 141.558 77.459 141.202 77.459 140.778C77.459 140.354 77.6367 139.938 77.9922 139.527C77.8691 139.445 77.7119 139.404 77.5205 139.404C76.5908 139.418 75.6885 140.074 74.8135 141.373V138.215C75.8252 136.957 76.9736 136.328 78.2588 136.328C79.7354 136.328 80.7266 136.971 81.2324 138.256C81.3965 138.652 81.4785 139.186 81.4785 139.855C81.4785 140.525 81.2803 141.1 80.8838 141.578C80.4873 142.043 79.9883 142.275 79.3867 142.275ZM93.168 146.541C89.5039 147.867 87.6719 149.802 87.6719 152.345C87.6719 153.37 87.918 154.197 88.4102 154.826C88.9023 155.441 89.6338 155.749 90.6045 155.749C91.5889 155.749 92.4434 155.387 93.168 154.662V156.61C92.1152 157.239 90.9258 157.554 89.5996 157.554C88.2734 157.554 87.207 157.424 86.4004 157.164C85.6074 156.904 84.9375 156.549 84.3906 156.098C83.2559 155.182 82.6885 153.972 82.6885 152.468C82.6885 149.364 85.4434 147.02 90.9531 145.434C91.7324 145.201 92.4707 144.996 93.168 144.818V146.541ZM88.3076 139.199C89.0596 139.486 89.4355 140.143 89.4355 141.168C89.4355 141.824 89.2031 142.351 88.7383 142.747C88.2734 143.144 87.6445 143.342 86.8516 143.342C86.0723 143.342 85.4502 143.13 84.9854 142.706C84.5342 142.282 84.3086 141.735 84.3086 141.065C84.3086 140.396 84.4658 139.794 84.7803 139.261C85.0947 138.728 85.5391 138.256 86.1133 137.846C87.3027 136.984 88.7998 136.485 90.6045 136.349V137.907C89.4971 138.017 88.7314 138.447 88.3076 139.199ZM100.51 154.97C101.262 154.97 101.74 154.286 101.945 152.919L102.991 153.473C102.854 154.799 102.485 155.811 101.884 156.508C101.296 157.205 100.353 157.554 99.0537 157.554C98.042 157.554 97.29 157.369 96.7979 157C96.0049 156.398 95.3623 155.489 94.8701 154.272V141.496C94.8701 140.648 94.6445 139.917 94.1934 139.302C93.7559 138.673 93.127 138.249 92.3066 138.03V136.349C96.9414 136.595 99.2588 139.042 99.2588 143.69V153.391C99.2588 154.443 99.6758 154.97 100.51 154.97ZM111.194 127.735V153.76C111.194 154.402 111.475 154.867 112.035 155.154C112.281 155.291 112.555 155.414 112.855 155.523C113.17 155.619 113.478 155.749 113.778 155.913V157H104.222V155.913C104.509 155.749 104.803 155.619 105.104 155.523C105.418 155.414 105.698 155.291 105.944 155.154C106.519 154.854 106.806 154.389 106.806 153.76V131.16C106.806 130.518 106.512 130.039 105.924 129.725C105.664 129.588 105.377 129.472 105.062 129.376C104.748 129.28 104.447 129.15 104.16 128.986V127.735H111.194ZM121.366 157.615C119.397 157.533 117.846 157 116.711 156.016C115.686 155.113 115.173 154.026 115.173 152.755C115.173 151.483 115.439 150.567 115.973 150.007C116.52 149.433 117.21 149.146 118.044 149.146C118.892 149.146 119.541 149.378 119.992 149.843C120.457 150.294 120.689 150.82 120.689 151.422C120.689 152.023 120.628 152.461 120.505 152.734C120.382 153.008 120.225 153.227 120.033 153.391C119.828 153.582 119.397 153.808 118.741 154.067C118.769 154.587 119.015 155.031 119.479 155.4C119.944 155.77 120.573 155.988 121.366 156.057V157.615ZM124.976 131.509C124.976 130.688 124.62 130.121 123.909 129.807C123.595 129.67 123.239 129.554 122.843 129.458C122.446 129.362 122.05 129.232 121.653 129.068V127.858H132.953V129.068C132.598 129.232 132.249 129.362 131.907 129.458C131.579 129.554 131.285 129.67 131.025 129.807C130.424 130.107 130.123 130.675 130.123 131.509V149.822C130.123 152.338 129.535 154.225 128.359 155.482C127.184 156.727 125.42 157.431 123.068 157.595V155.934C123.779 155.742 124.278 155.346 124.565 154.744C124.853 154.129 124.996 153.254 124.996 152.119L124.976 131.509ZM146.693 127.284C147.705 127.38 148.566 127.612 149.277 127.981C150.002 128.351 150.494 128.61 150.754 128.761C151.027 128.911 151.253 128.986 151.431 128.986C151.622 128.986 151.779 128.945 151.902 128.863C152.025 128.781 152.135 128.686 152.23 128.576C152.326 128.467 152.408 128.351 152.477 128.228C152.545 128.091 152.613 127.968 152.682 127.858H154.568V137.477H153.092C152.791 137.162 152.449 136.479 152.066 135.426C151.684 134.359 151.355 133.512 151.082 132.883C150.822 132.254 150.494 131.666 150.098 131.119C149.223 129.902 148.088 129.185 146.693 128.966V127.284ZM142.53 156.897C141.724 156.528 141.156 156.269 140.828 156.118C140.5 155.954 140.158 155.872 139.803 155.872C139.461 155.872 139.078 156.248 138.654 157H136.747V146.869H138.162C138.463 147.184 138.729 147.614 138.962 148.161C139.208 148.708 139.461 149.303 139.721 149.945C139.994 150.574 140.288 151.224 140.603 151.894C140.917 152.563 141.3 153.186 141.751 153.76C142.763 155.031 144.048 155.749 145.606 155.913V157.595C144.376 157.485 143.351 157.253 142.53 156.897ZM147.309 155.893C148.785 155.715 149.927 155.113 150.733 154.088C151.444 153.172 151.8 152.126 151.8 150.95C151.8 149.761 151.588 148.811 151.164 148.1C150.74 147.375 150.18 146.739 149.482 146.192C148.799 145.632 148.013 145.126 147.124 144.675C146.235 144.224 145.326 143.779 144.396 143.342C143.48 142.891 142.578 142.426 141.689 141.947C140.814 141.455 140.035 140.895 139.352 140.266C137.807 138.844 137.034 137.114 137.034 135.077C137.034 133.013 137.738 131.249 139.146 129.786C140.65 128.255 142.599 127.407 144.991 127.243V128.945C143.296 129.164 142.154 130.032 141.566 131.55C141.375 132.042 141.279 132.657 141.279 133.396C141.279 134.134 141.498 134.824 141.936 135.467C142.373 136.109 142.947 136.684 143.658 137.189C144.369 137.695 145.176 138.16 146.078 138.584C146.994 139.008 147.924 139.438 148.867 139.876C149.824 140.313 150.754 140.785 151.656 141.291C152.572 141.797 153.386 142.385 154.097 143.055C155.683 144.572 156.476 146.404 156.476 148.551C156.476 150.875 155.635 152.898 153.953 154.621C152.189 156.453 149.975 157.451 147.309 157.615V155.893Z" fill="#373737"/>
<path d="M23.56 12.82C23.48 13.0333 23.3233 13.25 23.09 13.47C22.8567 13.6833 22.56 13.86 22.2 14C21.84 14.14 21.4467 14.21 21.02 14.21C20.3667 14.21 19.8833 14.0767 19.57 13.81C19.2567 13.5367 19.1 13.1833 19.1 12.75C19.1 12.1233 19.26 11.5433 19.58 11.01C19.9 10.47 20.33 10.0433 20.87 9.73C21.41 9.41667 21.9867 9.26 22.6 9.26C22.98 9.26 23.2933 9.37333 23.54 9.6C23.7933 9.82 23.92 10.12 23.92 10.5C23.92 10.6467 23.86 10.77 23.74 10.87C23.62 10.9633 23.46 11.01 23.26 11.01C23.1 11.01 22.99 10.9733 22.93 10.9C22.8767 10.8267 22.85 10.73 22.85 10.61L22.86 10.38C22.86 10.3 22.8167 10.2367 22.73 10.19C22.6433 10.1367 22.55 10.11 22.45 10.11C22.2433 10.11 21.9633 10.2333 21.61 10.48C21.2633 10.7267 20.9567 11.0533 20.69 11.46C20.43 11.86 20.3 12.29 20.3 12.75C20.3 12.9367 20.3733 13.08 20.52 13.18C20.6667 13.28 20.8833 13.33 21.17 13.33C21.35 13.33 21.5567 13.2933 21.79 13.22C22.0233 13.1467 22.17 13.0533 22.23 12.94C22.4567 12.5267 22.6633 12.32 22.85 12.32C23.1233 12.32 23.3067 12.3733 23.4 12.48C23.5 12.58 23.5533 12.6933 23.56 12.82ZM28.0102 13.48C28.0236 13.6533 28.0469 13.81 28.0802 13.95C28.0669 13.99 28.0069 14.03 27.9002 14.07C27.8002 14.11 27.7136 14.13 27.6402 14.13C27.4002 14.13 27.2269 14.0933 27.1202 14.02C27.0202 13.9533 26.9702 13.85 26.9702 13.71C26.9702 13.5767 26.9836 13.4433 27.0102 13.31C26.8636 13.51 26.6469 13.6767 26.3602 13.81C26.0802 13.9367 25.8536 14 25.6802 14C25.2336 14 24.8602 13.87 24.5602 13.61C24.2669 13.35 24.1202 12.9333 24.1202 12.36C24.1202 11.82 24.2469 11.3133 24.5002 10.84C24.7602 10.36 25.1169 9.97667 25.5702 9.69C26.0236 9.39667 26.5269 9.25 27.0802 9.25C27.1869 9.25 27.3269 9.28 27.5002 9.34C27.6736 9.39333 27.8469 9.49 28.0202 9.63C28.2002 9.76333 28.3502 9.93667 28.4702 10.15C28.5236 10.15 28.5869 10.1767 28.6602 10.23C28.7336 10.2833 28.7702 10.3367 28.7702 10.39C28.7702 10.45 28.7602 10.51 28.7402 10.57L28.0102 13.48ZM27.5602 10.68C27.5202 10.5333 27.4402 10.41 27.3202 10.31C27.2069 10.21 27.1036 10.16 27.0102 10.16C26.7036 10.16 26.4136 10.27 26.1402 10.49C25.8736 10.7033 25.6569 10.97 25.4902 11.29C25.3236 11.61 25.2402 11.9133 25.2402 12.2C25.2402 12.48 25.2736 12.71 25.3402 12.89C25.4069 13.07 25.5369 13.16 25.7302 13.16C25.8969 13.16 26.0869 13.11 26.3002 13.01C26.5202 12.91 26.7136 12.7767 26.8802 12.61C27.0536 12.4367 27.1669 12.2567 27.2202 12.07L27.5602 10.68ZM30.6798 12.88C30.6798 13.0333 30.7064 13.14 30.7598 13.2C30.8131 13.26 30.9131 13.29 31.0598 13.29C31.2531 13.29 31.4131 13.25 31.5398 13.17C31.6731 13.0833 31.8331 12.95 32.0198 12.77C32.0731 12.7167 32.1331 12.69 32.1998 12.69C32.2798 12.69 32.3431 12.75 32.3898 12.87C32.4364 12.9833 32.4598 13.1 32.4598 13.22C32.4598 13.3867 32.3931 13.55 32.2598 13.71C32.1264 13.87 31.9331 14 31.6798 14.1C31.4264 14.2 31.1298 14.25 30.7898 14.25C30.3364 14.25 30.0131 14.1467 29.8198 13.94C29.6331 13.7333 29.5398 13.4167 29.5398 12.99C29.5398 12.93 29.5698 12.7733 29.6298 12.52C29.6898 12.2667 29.7664 11.9633 29.8598 11.61L30.1398 10.47L29.5298 10.52C29.4498 10.52 29.3898 10.49 29.3498 10.43C29.3098 10.37 29.2898 10.2967 29.2898 10.21C29.2898 10.0433 29.3498 9.87667 29.4698 9.71C29.4831 9.69 29.5498 9.67 29.6698 9.65C29.7898 9.63 29.9364 9.61 30.1098 9.59L30.3798 9.56L30.6098 8.53C30.6764 8.35667 30.7764 8.22333 30.9098 8.13C31.0498 8.03 31.1798 7.98 31.2998 7.98C31.4331 7.98 31.5464 8.02 31.6398 8.1C31.7331 8.18 31.7831 8.27333 31.7898 8.38L31.5398 9.45C31.7998 9.41667 32.0398 9.39 32.2598 9.37C32.4864 9.34333 32.6631 9.33 32.7898 9.33C33.0431 9.33 33.1698 9.47667 33.1698 9.77C33.1698 9.88333 33.1198 9.98667 33.0198 10.08C32.9264 10.1667 32.8231 10.22 32.7098 10.24L31.3098 10.38L30.6798 12.88Z" fill="black"/>
<path d="M119.56 102.82C119.48 103.033 119.323 103.25 119.09 103.47C118.857 103.683 118.56 103.86 118.2 104C117.84 104.14 117.447 104.21 117.02 104.21C116.367 104.21 115.883 104.077 115.57 103.81C115.257 103.537 115.1 103.183 115.1 102.75C115.1 102.123 115.26 101.543 115.58 101.01C115.9 100.47 116.33 100.043 116.87 99.73C117.41 99.4167 117.987 99.26 118.6 99.26C118.98 99.26 119.293 99.3733 119.54 99.6C119.793 99.82 119.92 100.12 119.92 100.5C119.92 100.647 119.86 100.77 119.74 100.87C119.62 100.963 119.46 101.01 119.26 101.01C119.1 101.01 118.99 100.973 118.93 100.9C118.877 100.827 118.85 100.73 118.85 100.61L118.86 100.38C118.86 100.3 118.817 100.237 118.73 100.19C118.643 100.137 118.55 100.11 118.45 100.11C118.243 100.11 117.963 100.233 117.61 100.48C117.263 100.727 116.957 101.053 116.69 101.46C116.43 101.86 116.3 102.29 116.3 102.75C116.3 102.937 116.373 103.08 116.52 103.18C116.667 103.28 116.883 103.33 117.17 103.33C117.35 103.33 117.557 103.293 117.79 103.22C118.023 103.147 118.17 103.053 118.23 102.94C118.457 102.527 118.663 102.32 118.85 102.32C119.123 102.32 119.307 102.373 119.4 102.48C119.5 102.58 119.553 102.693 119.56 102.82ZM124.01 103.48C124.024 103.653 124.047 103.81 124.08 103.95C124.067 103.99 124.007 104.03 123.9 104.07C123.8 104.11 123.714 104.13 123.64 104.13C123.4 104.13 123.227 104.093 123.12 104.02C123.02 103.953 122.97 103.85 122.97 103.71C122.97 103.577 122.984 103.443 123.01 103.31C122.864 103.51 122.647 103.677 122.36 103.81C122.08 103.937 121.854 104 121.68 104C121.234 104 120.86 103.87 120.56 103.61C120.267 103.35 120.12 102.933 120.12 102.36C120.12 101.82 120.247 101.313 120.5 100.84C120.76 100.36 121.117 99.9767 121.57 99.69C122.024 99.3967 122.527 99.25 123.08 99.25C123.187 99.25 123.327 99.28 123.5 99.34C123.674 99.3933 123.847 99.49 124.02 99.63C124.2 99.7633 124.35 99.9367 124.47 100.15C124.524 100.15 124.587 100.177 124.66 100.23C124.734 100.283 124.77 100.337 124.77 100.39C124.77 100.45 124.76 100.51 124.74 100.57L124.01 103.48ZM123.56 100.68C123.52 100.533 123.44 100.41 123.32 100.31C123.207 100.21 123.104 100.16 123.01 100.16C122.704 100.16 122.414 100.27 122.14 100.49C121.874 100.703 121.657 100.97 121.49 101.29C121.324 101.61 121.24 101.913 121.24 102.2C121.24 102.48 121.274 102.71 121.34 102.89C121.407 103.07 121.537 103.16 121.73 103.16C121.897 103.16 122.087 103.11 122.3 103.01C122.52 102.91 122.714 102.777 122.88 102.61C123.054 102.437 123.167 102.257 123.22 102.07L123.56 100.68ZM126.68 102.88C126.68 103.033 126.706 103.14 126.76 103.2C126.813 103.26 126.913 103.29 127.06 103.29C127.253 103.29 127.413 103.25 127.54 103.17C127.673 103.083 127.833 102.95 128.02 102.77C128.073 102.717 128.133 102.69 128.2 102.69C128.28 102.69 128.343 102.75 128.39 102.87C128.436 102.983 128.46 103.1 128.46 103.22C128.46 103.387 128.393 103.55 128.26 103.71C128.126 103.87 127.933 104 127.68 104.1C127.426 104.2 127.13 104.25 126.79 104.25C126.336 104.25 126.013 104.147 125.82 103.94C125.633 103.733 125.54 103.417 125.54 102.99C125.54 102.93 125.57 102.773 125.63 102.52C125.69 102.267 125.766 101.963 125.86 101.61L126.14 100.47L125.53 100.52C125.45 100.52 125.39 100.49 125.35 100.43C125.31 100.37 125.29 100.297 125.29 100.21C125.29 100.043 125.35 99.8767 125.47 99.71C125.483 99.69 125.55 99.67 125.67 99.65C125.79 99.63 125.936 99.61 126.11 99.59L126.38 99.56L126.61 98.53C126.676 98.3567 126.776 98.2233 126.91 98.13C127.05 98.03 127.18 97.98 127.3 97.98C127.433 97.98 127.546 98.02 127.64 98.1C127.733 98.18 127.783 98.2733 127.79 98.38L127.54 99.45C127.8 99.4167 128.04 99.39 128.26 99.37C128.486 99.3433 128.663 99.33 128.79 99.33C129.043 99.33 129.17 99.4767 129.17 99.77C129.17 99.8833 129.12 99.9867 129.02 100.08C128.926 100.167 128.823 100.22 128.71 100.24L127.31 100.38L126.68 102.88ZM131.175 100.71C131.182 100.843 131.238 100.95 131.345 101.03C131.452 101.103 131.628 101.193 131.875 101.3C132.135 101.413 132.348 101.523 132.515 101.63C132.682 101.73 132.825 101.877 132.945 102.07C133.065 102.263 133.125 102.507 133.125 102.8C133.125 103.28 132.945 103.647 132.585 103.9C132.232 104.147 131.752 104.27 131.145 104.27C130.845 104.27 130.562 104.217 130.295 104.11C130.035 104.01 129.828 103.883 129.675 103.73C129.522 103.577 129.442 103.423 129.435 103.27C129.435 103.103 129.495 102.97 129.615 102.87C129.742 102.77 129.918 102.703 130.145 102.67C130.152 102.803 130.218 102.93 130.345 103.05C130.472 103.163 130.618 103.257 130.785 103.33C130.958 103.397 131.108 103.43 131.235 103.43C131.488 103.43 131.662 103.387 131.755 103.3C131.855 103.207 131.905 103.08 131.905 102.92C131.905 102.747 131.848 102.583 131.735 102.43C131.622 102.27 131.448 102.153 131.215 102.08C130.855 101.967 130.568 101.783 130.355 101.53C130.142 101.27 130.035 101.003 130.035 100.73C130.035 100.25 130.198 99.88 130.525 99.62C130.852 99.36 131.312 99.23 131.905 99.23C132.205 99.23 132.472 99.2833 132.705 99.39C132.938 99.4967 133.118 99.63 133.245 99.79C133.372 99.95 133.435 100.107 133.435 100.26C133.435 100.42 133.368 100.553 133.235 100.66C133.108 100.76 132.932 100.827 132.705 100.86C132.692 100.647 132.615 100.467 132.475 100.32C132.342 100.173 132.185 100.1 132.005 100.1C131.792 100.1 131.598 100.16 131.425 100.28C131.258 100.4 131.175 100.543 131.175 100.71Z" fill="black"/>
</svg>
